<?xml version="1.0" encoding="utf-8"?>
<!-- Generator: Adobe Illustrator 26.5.0, SVG Export Plug-In . SVG Version: 6.00 Build 0)  -->
<svg version="1.1" id="Layer_1" xmlns="http://www.w3.org/2000/svg" xmlns:xlink="http://www.w3.org/1999/xlink" x="0px" y="0px"
	 viewBox="0 0 328.4 122.6" style="enable-background:new 0 0 328.4 122.6;" xml:space="preserve">
<style type="text/css">
	.st0{fill:none;}
	.st1{fill:#FFFFFF;}
	.st2{fill:#F47B34;}
</style>
<g>
	<polygon class="st0" points="37.6,72.1 37.9,72.5 38.3,72.1 	"/>
	<path class="st1" d="M85.9,45.1c-2.2-2.5-5.2-4.4-9.1-5.6c3.3-1.6,5.7-3.5,7.3-5.7c1.6-2.2,2.4-4.7,2.4-7.6c0-3.5-1-6.5-2.9-9.1
		c-2-2.6-4.7-4.6-8.3-6S67.6,9,62.9,9H8.4c0.6,0.9,1,1.9,1.3,3c0.3,1,0.4,2.4,0.5,4.1v2.1h52.7c2.8,0,4.9,0.8,6.5,2.5s2.4,3.7,2.4,6
		c0,2.4-0.8,4.4-2.4,6.1c-1.6,1.7-3.7,2.5-6.5,2.5h-28l-9.4,9.4h37.4c3,0,5.3,0.9,7,2.7s2.5,3.9,2.5,6.3c0,1.4-0.3,2.7-0.8,3.9H73
		v-0.1v-0.1c0.2-0.5,0.7-0.8,1.2-0.8c0.1,0,0.2,0,0.3,0c0.3,0.1,0.6,0.3,0.8,0.6c0.2,0.3,0.2,0.6,0.2,1c-0.2,0.6-0.7,0.9-1.2,0.9
		c-0.1,0-0.2,0-0.3,0c-0.4-0.1-0.8-0.5-0.9-0.9h-1.6V58c-0.4,0.7-0.9,1.4-1.5,2.1c-1.7,1.8-4,2.7-7,2.7H48.3l0.3,0.3h23.6l0.2,0.2
		l1.3,0.3l12.6-0.1c1.1-1.5,1.9-3.3,2.4-5.2l0,0h-4.1v0.3v0.1c-0.2,0.5-0.7,0.9-1.2,0.9c-0.1,0-0.3,0-0.4-0.1
		c-0.6-0.2-0.9-0.9-0.8-1.5c0.2-0.6,0.7-0.9,1.2-0.9c0.1,0,0.2,0,0.3,0c0.3,0.1,0.6,0.3,0.7,0.6l0,0h4.4c0.2-1.1,0.3-2.3,0.3-3.5
		C89.1,50.6,88,47.6,85.9,45.1z"/>
	<polygon class="st1" points="25.2,54.1 12.6,54.1 10.2,56.5 10.2,58.4 25.2,58.4 	"/>
	<path class="st1" d="M73,64.3l4.1,4.1h3.4c0.6-0.3,1.1-0.6,1.6-1c1.3-0.9,2.5-1.9,3.4-3l-11.9-0.1H73z"/>
	<rect x="10.2" y="59.4" class="st1" width="15" height="3"/>
	<path class="st1" d="M14.8,69.3c-0.2-0.3-0.2-0.6-0.1-1c0.2-0.6,0.7-0.9,1.2-0.9c0.1,0,0.2,0,0.3,0c0.4,0.1,0.8,0.5,0.9,0.9
		l7.6-0.1l9-0.1l0.1,0.1c1.5,1.4,2.7,2.6,3.7,3.8h0.7l2.4-2.4l-4.4-4.4h-26c0,1.5-0.1,2.7-0.4,3.7c0,0.1-0.1,0.3-0.1,0.4h0.8H14.8z"
		/>
	<polygon class="st1" points="12,53.2 12.3,53.1 19,53.2 25.2,53.2 25.2,18.3 10.2,27.8 10.2,55.2 12,53.4 	"/>
	<path class="st1" d="M17.1,69L17.1,69L17.1,69c0,0.2-0.1,0.2-0.1,0.3h2.6c1.5,0.1,3,0.1,4.5,0.1c1.1,0.1,2.1,0.1,3.2,0.1l0,0
		c0.1-0.1,0.1-0.3,0.2-0.4h-2.8L17.1,69z"/>
	<path class="st1" d="M29.5,69.2c0.3,0.3,0.4,0.7,0.2,1.2c-0.2,0.5-0.7,0.8-1.2,0.8c-0.1,0-0.2,0-0.3,0c-0.4-0.1-0.8-0.5-0.9-0.9
		c-1.1,0.1-2.1,0.1-3.2,0.1c-1.5,0.1-3,0.1-4.5,0.1H9.3c-0.2,0.6-0.5,1.1-0.9,1.7h27.9l-2.9-2.9L29.5,69.2z"/>
	<path class="st1" d="M43,72.1l-1.7-1.7l-1.7,1.7h23.3c1.5,0,2.9-0.1,4.2-0.2l-9,0.1L43,72.1z"/>
	<path class="st1" d="M62.9,70.2H42.4l0.8,0.8L58,71.1l13.7,0.2v-0.2V71c0.2-0.5,0.7-0.8,1.2-0.8c0.1,0,0.2,0,0.3,0
		c0.3,0.1,0.6,0.2,0.8,0.6l0,0c0.9-0.2,1.8-0.5,2.6-0.8h-2.9L62.9,70.2z"/>
	<path class="st1" d="M71.9,64.3l-13.1-0.1v-0.1H48.2l-1.3-1.3h-5l-0.7,0.7h-31v0.9h26.4l4.9,4.9H63l10.8,0.1h4.9
		c0.1,0,0.1-0.1,0.2-0.1h-2L71.9,64.3z"/>
	<path class="st1" d="M155.7,69.6l-9.3,0.1l-4.4-4.4l-12.8,0.1h-12.8l-3.7,3.7c1.4,0.6,2.8,1.1,4.3,1.5c5.7,1.7,11.7,2.5,18.1,2.5
		s12.4-0.8,18.1-2.4c0.8-0.2,1.6-0.5,2.4-0.8L155.7,69.6C155.7,69.7,155.7,69.6,155.7,69.6z"/>
	<path class="st1" d="M160.2,64c-0.6,0-1.2,0-1.8,0c-0.1,0.4-0.5,0.7-0.8,0.8c-0.1,0-0.2,0.1-0.4,0.1c-0.6,0-1.1-0.4-1.2-0.9v-0.2
		c-0.1-0.1-0.1-0.2-0.2-0.4c-0.6,0-1.2,0-1.8,0.1c-0.7,0-1.3,0-1.9,0l-5.1,0.1l-0.1-0.1c-0.1-0.1-0.2-0.2-0.3-0.3s-0.2-0.3-0.4-0.5
		l0,0c-0.1,0-0.2,0.1-0.3,0.1c-2,0.7-4.1,1.2-6.2,1.5h2.5l4.4,4.5l9,0.1v-0.1v-0.1c0.2-0.5,0.7-0.8,1.2-0.8c0.1,0,0.2,0,0.3,0
		c0.4,0.1,0.7,0.5,0.8,0.9v0.1c3.1-1.3,5.8-2.9,8.1-4.9c-1.1,0-3.9-0.1-3.9-0.1C161.5,64,160.8,64,160.2,64z"/>
	<path class="st1" d="M129,64.2h1.1c-2-0.3-3.9-0.8-5.7-1.4c-1.2-0.4-2.3-0.9-3.4-1.5c-0.2,0.3-0.5,0.4-0.9,0.4
		c-0.1,0-0.2,0-0.3-0.1c-0.3-0.1-0.6-0.2-0.7-0.5c-0.2-0.3-0.2-0.7-0.1-1.1l0,0l0,0c-1-0.7-2-1.6-2.8-2.5c-0.4-0.4-0.7-0.9-1-1.3
		l-9.2,9.2c1.6,1.2,3.5,2.2,5.5,3.1l4.3-4.3C115.8,64.2,129,64.2,129,64.2z"/>
	<path class="st1" d="M160.2,63.7L160.2,63.7L160.2,63.7z"/>
	<path class="st1" d="M156.6,12c0.3,1,0.4,2.4,0.5,4.1v33c0,1.7-0.3,3.2-0.8,4.7c0.2-0.1,0.3-0.1,0.5-0.1c0.1,0,0.2,0,0.4,0.1
		c0.3,0.1,0.5,0.3,0.7,0.5c0.7,0.2,0.9,0.6,1,0.9l8.9-0.2h4.2c0.2-1.1,0.3-2.2,0.3-3.4V16.1c0.1-1.7,0.2-3,0.5-4.1s0.7-2.1,1.3-3
		h-18.7C155.9,9.9,156.3,10.9,156.6,12z"/>
	<path class="st1" d="M158.8,55.7c-0.1,0.4-0.5,0.8-0.9,0.9c-0.1,0-0.2,0-0.3,0c-0.4,0-0.8-0.2-1-0.5l0,0c-0.5-0.1-0.8-0.4-0.9-0.8
		c-0.4,0.8-0.9,1.5-1.6,2.2c-1.7,2.1-4.1,3.7-6.9,4.8l0.3,0.3l4.7,0.1c0.6,0,1.3,0,2,0c0.6,0,1.1,0,1.7,0l0,0
		c0.2-0.5,0.7-0.8,1.2-0.8c0.1,0,0.2,0,0.3,0c0.5,0.1,0.9,0.5,0.9,1c0.1,0.1,0.1,0.2,0.2,0.3c0.6,0,1.1,0,1.7,0v0.3l0,0v-0.3
		c0.7,0,1.4-0.1,2-0.1l4.6-0.1l0.1,0.2l0.1-0.1c2.4-2.2,3.9-4.7,4.6-7.5h-4L158.8,55.7z"/>
	<path class="st1" d="M103,61.5c0.9,0.9,1.9,1.8,2.8,2.7l8.8-9c-1-1.8-1.5-3.9-1.5-6.2V16c0.1-1.7,0.2-3,0.5-4.1c0.3-1,0.7-2,1.3-3
		H96.3c0.6,0.9,1,1.9,1.3,3c0.3,1,0.4,2.4,0.5,4.1v35.4c0,2.6,0.6,5,1.8,7.2l0.2-0.1C101,59.6,102,60.6,103,61.5z"/>
	<path class="st1" d="M102.1,61.9c0.4,0.4,0.8,0.9,1.2,1.3l0.1,0.1c-0.2-0.2-0.4-0.5-0.7-0.7C102.5,62.4,102.3,62.2,102.1,61.9z"/>
	<path class="st1" d="M200.4,12c0.3-1,0.7-2,1.3-3h-18.6c0.6,0.9,1,1.9,1.3,3c0.3,1,0.4,2.4,0.5,4.1v38.7h13.6l0.2,0.1l1.2,1.2v-40
		C200,14.4,200.1,13.1,200.4,12z"/>
	<path class="st1" d="M188.2,55.9c-1,0-2.1,0-3.3-0.1v4.8h3.1c1.1,0.1,2.1,0.1,3.1,0.1h1.8c0.1-0.4,0.5-0.8,0.9-0.9
		c0.1,0,0.2,0,0.3,0c0.5,0,0.9,0.3,1.1,0.8c0.3,0.6-0.1,1.3-0.8,1.6c-0.1,0.1-0.3,0.1-0.4,0.1c-0.5,0-1-0.4-1.2-0.9H191
		c-1.1,0.1-2.1,0.1-3.1,0.1h-3.1v3.4h13.3l1.8,1.8c0-0.5-0.1-1-0.1-1.6v-7.6l-1.6-1.6C198.2,55.9,188.2,55.9,188.2,55.9z"/>
	<path class="st1" d="M184.8,65.9c-0.1,1.3-0.2,2.4-0.4,3.3c-0.3,1-0.7,2-1.3,3h18.6c-0.6-0.9-1-1.9-1.3-3c-0.1-0.3-0.1-0.6-0.2-0.9
		l-2.4-2.4H184.8z"/>
	<polygon class="st1" points="225.9,64.7 221.7,68.8 237.1,68.7 241.2,64.6 240.6,64.6 	"/>
	<path class="st1" d="M219.7,68.7h0.6l5.2-5.2l15.1,0.1h1.4l0.2-0.2h21.6v-2.5c-0.9,0.6-1.9,1-3,1.3s-2.5,0.4-4.1,0.5h-27.3v-3.8
		l-6.2,0.1h-7.7c-0.1,0.2-0.3,0.3-0.4,0.5c-0.2,0.2-0.3,0.3-0.5,0.5l-0.2,0.3v4.8c-0.1,1.7-0.2,2.9-0.5,4l5.8-0.1V68.7z"/>
	<path class="st1" d="M240.4,70.5l-5.4,0.1l-4.3,0.1l0,0l-0.2,0.2c0,0.1-0.1,0.2-0.2,0.2l-0.1,0.1c-0.1,0.1-0.2,0.2-0.3,0.2h-0.6
		c-0.2,0-0.3-0.1-0.4-0.2l-0.2-0.2l0,0l0,0l-0.1-0.1c-0.1-0.1-0.2-0.2-0.2-0.3v-0.8h0.1l0.1-0.1c0,0,0-0.1,0.1-0.1h-7.4l-0.7,0.7h-7
		c-0.3,0.7-0.6,1.4-1,2.1h27.5c0-0.3,0-0.6,0.2-0.9s0.4-0.5,0.8-0.5c0.1,0,0.2-0.1,0.4-0.1c0.6,0,1.1,0.4,1.2,0.9v0.1l13.7-0.2h7.5
		v-0.9h-12.5L240.4,70.5z"/>
	<path class="st1" d="M223.2,58.2l6.2,0.1V16.2c0-1.7,0.1-3,0.4-4.1s0.7-2.1,1.4-3.1h-18.6c0.6,0.9,1,1.9,1.3,3
		c0.3,1,0.4,2.4,0.5,4.1V59l0.8-0.8H223.2z"/>
	<polygon class="st1" points="255.6,64.5 242.5,64.6 237.5,69.5 230.5,69.5 230.7,69.7 230.7,69.7 235,69.8 240.4,69.9 262.2,69.7 
		263.8,69.7 263.8,64.4 255.6,64.4 	"/>
	<path class="st1" d="M246,8.9v11.3c0.9-0.6,1.9-1,3-1.3c1-0.3,2.4-0.4,4.1-0.5h37.8h22.5c1.7,0.1,3,0.2,4.1,0.5c1,0.3,2,0.7,3,1.3
		V8.9H246z"/>
	<path class="st1" d="M286.9,69.5c0.2,0.2,0.3,0.3,0.4,0.6c1,0,2.1,0,3.2-0.1h1.1c-0.1-0.2-0.1-0.3-0.2-0.5h-1.9H286.9z"/>
	<path class="st1" d="M275.8,53l0.1,0.1c0.3,0.2,0.5,0.4,0.7,0.8V54l5.4-0.2h8.9V18.4l-15.1,9.5V53z"/>
	<path class="st1" d="M287.3,70.7c-0.1,0.4-0.4,0.7-0.7,0.9c-0.2,0.1-0.3,0.1-0.5,0.1c-0.5,0-1-0.3-1.2-0.9c-0.2-0.5,0-1,0.4-1.4
		l-4.5,0.1l-2.6,2.6h14.4c-0.3-0.4-0.5-0.9-0.7-1.4h-1.4C289.4,70.8,288.4,70.8,287.3,70.7z"/>
	<polygon class="st1" points="275.8,59.9 275.8,62.9 290.9,62.9 290.9,60 290.7,60 	"/>
	<path class="st1" d="M274,72.2h0.4l-0.2-0.2C274.1,72,274.1,72.1,274,72.2z"/>
	<path class="st1" d="M275.8,65c0,0.6,0,1.2-0.1,1.7l1.9-1.9h13.2v-0.9h-15.1V65C275.7,65,275.8,65,275.8,65z"/>
	<path class="st1" d="M275.7,68.1L275.7,68.1c-0.2,0.3-0.2,0.7-0.3,1c-0.2,0.7-0.4,1.4-0.8,2l1.1,1.1h1.2l3.5-3.5h10.8
		c-0.1-0.6-0.3-1.2-0.3-1.9v-1h-12.8L275.7,68.1z"/>
	<path class="st1" d="M276.6,54.5c-0.1,0.3-0.3,0.5-0.6,0.7l-0.2,0.1V59l15.1-0.1v-4.3H282L276.6,54.5z"/>
	<g>
		<path class="st2" d="M275.7,66.7c0,0.5-0.1,0.9-0.1,1.3l0.1,0.1l2.4-2.3h12.8v-1h-13.2L275.7,66.7z"/>
		<path class="st2" d="M276.9,72.2h1.3l2.6-2.6l4.5-0.1c-0.4,0.3-0.6,0.9-0.4,1.4s0.7,0.9,1.2,0.9c0.1,0,0.3,0,0.5-0.1
			c0.3-0.2,0.6-0.5,0.7-0.9c1.1,0.1,2.1,0.1,3.2,0.1h1.4c-0.1-0.3-0.2-0.5-0.3-0.8h-1.1c-1.1,0.1-2.2,0.1-3.2,0.1
			c-0.1-0.2-0.2-0.4-0.4-0.6h2.6h1.9c-0.1-0.3-0.1-0.5-0.2-0.8h-10.8L276.9,72.2z"/>
		<polygon class="st2" points="275.8,59.9 290.7,60 290.9,60 290.9,58.9 275.8,59 		"/>
		<path class="st2" d="M276.6,53.9L276.6,53.9c-0.1-0.4-0.4-0.7-0.7-0.9l-0.1-0.1v2.4l0.2-0.1c0.3-0.2,0.5-0.5,0.6-0.7l5.4,0.1h8.9
			v-0.9H282L276.6,53.9z"/>
		<rect x="275.8" y="62.9" class="st2" width="15.1" height="1"/>
		<path class="st2" d="M274.1,72l0.2,0.2h1.3l-1.1-1.1C274.5,71.4,274.3,71.7,274.1,72z"/>
		<path class="st2" d="M242.2,63.4l-0.2,0.2h-1.4l-15.1-0.1l-5.2,5.2h-0.6V69l-5.8,0.1v0.1c-0.1,0.3-0.2,0.6-0.3,0.9h7l0.7-0.7h7.4
			l-0.1,0.1l-0.1,0.1h-0.1v0.8c0,0.1,0.1,0.3,0.2,0.3l0.1,0.1l0,0v0.1l0.2,0.2c0.1,0.1,0.2,0.2,0.4,0.2h0.6c0.1,0,0.3-0.1,0.3-0.2
			l0.1-0.1c0.1-0.1,0.1-0.1,0.2-0.2l0.2-0.2l0,0l4.3-0.1l5.4-0.1l10.9,0.1h12.5v-0.9h-1.6l-21.8,0.2l-5.4-0.1l-4.3-0.1l0,0l-0.2-0.2
			h7l5-4.9l13.1-0.1v-0.1h8.2v-1L242.2,63.4L242.2,63.4z M237.1,68.7l-15.3,0.1l4.2-4.1l14.7-0.1h0.6L237.1,68.7z"/>
		<path class="st2" d="M184.9,64.9v0.2c0,0.3,0,0.5-0.1,0.8h12.9l2.4,2.4c-0.1-0.5-0.1-1-0.2-1.6l-1.8-1.8H184.9z"/>
		<path class="st2" d="M162.2,63.3c-0.7,0-1.3,0-2,0.1v0.3l0,0v-0.3c-0.6,0-1.1,0-1.7,0c0-0.1-0.1-0.2-0.2-0.3
			c-0.1-0.5-0.4-0.8-0.9-1c-0.1,0-0.2,0-0.3,0c-0.6,0-1,0.3-1.2,0.8l0,0c-0.6,0-1.1,0-1.7,0c-0.7,0-1.4,0-2,0l-4.7-0.1l-0.3-0.3
			c-0.3,0.1-0.6,0.3-1,0.4l0,0c0.2,0.2,0.3,0.3,0.4,0.5c0.1,0.1,0.2,0.2,0.3,0.3l0.1,0.1l5.1-0.1c0.6,0,1.3,0,1.9,0
			c0.6,0,1.2,0,1.8-0.1c0,0.1,0.1,0.3,0.2,0.4v0.2c0.1,0.5,0.6,0.9,1.2,0.9c0.2,0,0.3,0,0.4-0.1c0.4-0.1,0.7-0.4,0.8-0.8
			c0.6,0,1.2,0,1.8,0c0.7,0,1.3,0,2,0c0,0,2.8,0.1,3.9,0.1c0.3-0.2,0.5-0.4,0.7-0.7l-0.1-0.2L162.2,63.3z M160.2,63.7L160.2,63.7
			L160.2,63.7L160.2,63.7z"/>
		<rect x="229.4" y="58.3" class="st2" width="0" height="0.6"/>
		<path class="st2" d="M215.1,59.5c0.1-0.1,0.3-0.3,0.4-0.5h7.7l6.2-0.1v-0.6l-6.2-0.1h-8l-0.8,0.8v1.3l0.2-0.3
			C214.8,59.8,214.9,59.6,215.1,59.5z"/>
		<path class="st2" d="M114.6,55.3l-8.8,9c-0.9-0.9-1.9-1.8-2.8-2.7c-1-1-2-1.9-3-2.9l-0.2,0.1c0.6,1.1,1.3,2.2,2.2,3.2
			c0.2,0.2,0.4,0.5,0.7,0.7c0.2,0.2,0.4,0.5,0.7,0.7c0.8,0.7,1.6,1.4,2.5,2.1l9.2-9.2C115,55.9,114.8,55.6,114.6,55.3z"/>
		<path class="st2" d="M84.4,57.6c-0.1-0.3-0.4-0.5-0.7-0.6c-0.1,0-0.2,0-0.3,0c-0.6,0-1,0.3-1.2,0.9c-0.1,0.7,0.2,1.3,0.8,1.5
			c0.1,0.1,0.3,0.1,0.4,0.1c0.5,0,1-0.3,1.2-0.9v-0.1v-0.3h4.1l0,0c0.1-0.2,0.1-0.5,0.1-0.7L84.4,57.6L84.4,57.6z"/>
		<path class="st2" d="M158.8,55.1c-0.1-0.3-0.3-0.7-1-0.9c-0.2-0.2-0.4-0.4-0.7-0.5c-0.1,0-0.2-0.1-0.4-0.1s-0.3,0-0.5,0.1
			c-0.2,0.5-0.4,1-0.7,1.5c0.1,0.4,0.4,0.7,0.9,0.8l0,0c0.2,0.3,0.6,0.5,1,0.5c0.1,0,0.2,0,0.3,0c0.4-0.1,0.8-0.5,0.9-0.9l8.8,0.1h4
			c0.1-0.3,0.2-0.6,0.2-0.9h-4.2L158.8,55.1z"/>
		<path class="st2" d="M242.6,71.7L242.6,71.7c-0.1-0.6-0.6-1-1.2-1c-0.2,0-0.3,0-0.4,0.1c-0.3,0.1-0.6,0.3-0.8,0.5
			c-0.2,0.3-0.2,0.6-0.2,0.9h23.7v-0.7h-7.5L242.6,71.7z"/>
		<polygon class="st2" points="25.2,54.1 25.2,53.2 19,53.2 12.3,53.1 12,53.2 12,53.4 10.2,55.2 10.2,56.5 12.6,54.1 		"/>
		<path class="st2" d="M198.5,54.8h-13.6v1c1.2,0.1,2.3,0.1,3.3,0.1h10.1l1.6,1.6v-1.4l-1.2-1.2L198.5,54.8z"/>
		<path class="st2" d="M73,58.2c0.1,0.4,0.5,0.8,0.9,0.9c0.1,0,0.2,0,0.3,0c0.6,0,1-0.3,1.2-0.9c0.1-0.3,0-0.7-0.2-1
			s-0.5-0.5-0.8-0.6c-0.1,0-0.2,0-0.3,0c-0.6,0-1,0.3-1.2,0.8v0.1v0.1h-1.4c-0.1,0.1-0.1,0.3-0.2,0.4v0.2H73z"/>
		<path class="st2" d="M72.3,63.3l-0.2-0.2H48.5l-0.3-0.3h-1.4l1.3,1.3h10.6v0.1l13.1,0.1l5,4.9h2c0.5-0.3,1.1-0.5,1.6-0.8H77
			l-4.1-4.1h0.6l11.9,0.1c0.3-0.3,0.5-0.6,0.7-0.9l-12.6,0.1L72.3,63.3z"/>
		<path class="st2" d="M119,60.1c-0.1,0.4-0.1,0.8,0.1,1.1s0.4,0.5,0.7,0.5c0.1,0,0.2,0.1,0.3,0.1c0.3,0,0.7-0.2,0.9-0.4
			C120.3,60.9,119.6,60.5,119,60.1L119,60.1L119,60.1z"/>
		<path class="st2" d="M157.2,68c-0.1,0-0.2,0-0.3,0c-0.6,0-1,0.3-1.2,0.8v0.1V69l-9-0.1l-4.4-4.5h-2.5c-1.5,0.2-2.9,0.3-4.5,0.3
			c-1.7,0-3.4-0.1-5.1-0.4h-1.1h-13.2l-4.3,4.3c0.4,0.2,0.9,0.4,1.3,0.6l3.7-3.7h12.8l12.8-0.1l4.4,4.4l9.3-0.1v0.1V70
			c0.8-0.3,1.6-0.6,2.3-0.9V69C157.8,68.5,157.5,68.1,157.2,68z"/>
		<path class="st2" d="M191.1,61.4h1.8c0.1,0.5,0.6,0.9,1.2,0.9c0.2,0,0.3,0,0.4-0.1c0.7-0.3,1-1,0.8-1.6c-0.2-0.5-0.6-0.8-1.1-0.8
			c-0.1,0-0.2,0-0.3,0c-0.4,0.1-0.8,0.5-0.9,0.9h-1.8c-1,0-2,0-3.1-0.1H185v0.9h3.1C189,61.5,190,61.5,191.1,61.4z"/>
		<path class="st2" d="M33.9,68.3L33.9,68.3h-9.1l-7.6,0.1c-0.1-0.4-0.5-0.8-0.9-0.9c-0.1,0-0.2,0-0.3,0c-0.6,0-1,0.3-1.2,0.9
			c-0.1,0.4,0,0.7,0.1,1l-4.3,0.1H9.7c-0.1,0.3-0.2,0.7-0.4,1h10.2c1.5,0,3,0,4.5-0.1c1.1,0,2.1,0,3.2-0.1c0.1,0.4,0.5,0.8,0.9,0.9
			c0.1,0,0.2,0,0.3,0c0.6,0,1-0.3,1.2-0.8c0.2-0.4,0.1-0.8-0.2-1.2h3.9l2.9,2.9h1.3C36.6,70.9,35.4,69.6,33.9,68.3z M27.3,69.5
			L27.3,69.5c-1.1,0-2.1,0-3.2-0.1c-1.5,0-3,0-4.5-0.1H17c0-0.1,0.1-0.1,0.1-0.2V69l0,0l7.6,0.1h2.8C27.4,69.2,27.4,69.4,27.3,69.5z
			"/>
		<path class="st2" d="M63,69.2H41.5l-4.9-4.9H10.2v0.6c0,0.1,0,0.3,0,0.4h26.1l4.4,4.4l-2.4,2.4h1.3l1.7-1.7l1.7,1.7L58.1,72l9-0.1
			c2.5-0.2,4.8-0.5,7-1.1l0,0c-0.2-0.3-0.5-0.5-0.8-0.6c-0.1,0-0.2,0-0.3,0c-0.6,0-1,0.3-1.2,0.8v0.1v0.2L58,71.1L43.2,71l-0.8-0.8
			h20.5l10.9-0.1h2.9c0.7-0.2,1.4-0.5,2-0.8h-4.9L63,69.2z"/>
		<rect x="10.2" y="58.4" class="st2" width="15" height="1"/>
		<polygon class="st2" points="41.9,62.7 25.2,62.7 25.2,62.4 10.2,62.4 10.2,63.4 41.2,63.4 		"/>
	</g>
	<g>
		<path class="st1" d="M194.3,94.7h1l3.4-9.5h1.7l3.4,9.5h1v1.2h-3.7v-1.2h1.1l-0.8-2.4h-3.8l-0.8,2.4h1.1v1.2h-3.7V94.7z
			 M201.1,91.1l-1.3-3.7c-0.2-0.4-0.2-0.8-0.2-0.8h0c0,0,0,0.4-0.2,0.8l-1.3,3.7H201.1z"/>
		<path class="st1" d="M210,86.3h-1v-1.2h3.8v1.2h-1.2l2.4,7c0.1,0.4,0.2,0.8,0.2,0.8h0c0,0,0.1-0.5,0.2-0.8l2.4-7h-1.2v-1.2h3.8
			v1.2h-1.1l-3.4,9.5h-1.6L210,86.3z"/>
		<path class="st1" d="M223.6,91.1h0.5v-0.3c0-1.2-0.7-1.6-1.6-1.6c-1.2,0-2.2,0.7-2.2,0.7l-0.6-1c0,0,1.1-0.9,2.9-0.9
			c1.9,0,3,1,3,2.9v3.4c0,0.2,0.1,0.3,0.3,0.3h0.8v1.1h-1.5c-0.7,0-1-0.3-1-0.8v-0.1c0-0.3,0.1-0.5,0.1-0.5h0c0,0-0.7,1.6-2.5,1.6
			c-1.3,0-2.5-0.7-2.5-2.3C219.2,91.3,222.4,91.1,223.6,91.1z M222,94.9c1.3,0,2.1-1.3,2.1-2.5v-0.3h-0.4c-0.7,0-3.1,0-3.1,1.5
			C220.7,94.3,221.2,94.9,222,94.9z"/>
		<path class="st1" d="M231.5,88c1.1,0,3,0.4,3,1.7v0.9h-1.3v-0.5c0-0.6-1-0.9-1.6-0.9c-1.5,0-2.6,1.1-2.6,2.7
			c0,1.7,1.2,2.8,2.7,2.8c1.3,0,2.2-0.8,2.4-1l0.6,1.1c-0.3,0.3-1.5,1.2-3.1,1.2c-2.2,0-4.1-1.5-4.1-4C227.5,89.7,229.2,88,231.5,88
			z"/>
		<path class="st1" d="M239.8,88c2.3,0,4.1,1.7,4.1,4c0,2.3-1.8,4-4.1,4c-2.3,0-4.1-1.7-4.1-4C235.7,89.7,237.5,88,239.8,88z
			 M239.8,94.7c1.4,0,2.6-1.1,2.6-2.8c0-1.6-1.2-2.7-2.6-2.7c-1.5,0-2.6,1.1-2.6,2.7C237.2,93.6,238.4,94.7,239.8,94.7z"/>
		<path class="st1" d="M254.5,85c1.3,0,4.1,0.5,4.1,2.1v1.3h-1.4v-0.8c0-0.9-1.6-1.3-2.6-1.3c-2.3,0-4,1.7-4,4.1
			c0,2.5,1.7,4.3,4,4.3c0.8,0,2.7-0.3,2.7-1.3v-0.8h1.4v1.3c0,1.6-2.7,2.1-4.2,2.1c-3.2,0-5.5-2.5-5.5-5.6
			C249.1,87.3,251.4,85,254.5,85z"/>
		<path class="st1" d="M264.2,88c2.3,0,4.1,1.7,4.1,4c0,2.3-1.8,4-4.1,4c-2.3,0-4.1-1.7-4.1-4C260.1,89.7,261.9,88,264.2,88z
			 M264.2,94.7c1.4,0,2.6-1.1,2.6-2.8c0-1.6-1.2-2.7-2.6-2.7c-1.5,0-2.6,1.1-2.6,2.7C261.6,93.6,262.8,94.7,264.2,94.7z"/>
		<path class="st1" d="M269.4,94.7h1.2v-5.1c0-0.2-0.1-0.3-0.3-0.3h-0.9v-1.1h1.7c0.6,0,1,0.3,1,0.8v0.4c0,0.2,0,0.4,0,0.4h0
			c0.4-0.9,1.5-1.9,2.7-1.9c1.2,0,2,0.6,2.2,1.8h0c0.4-1,1.5-1.8,2.7-1.8c1.7,0,2.5,1,2.5,2.9v3.8h1.2v1.1h-2.7v-4.6
			c0-1.1-0.2-1.9-1.3-1.9c-1.4,0-2.3,1.5-2.3,3v2.4h1.2v1.1h-2.7v-4.6c0-1-0.2-1.9-1.3-1.9c-1.5,0-2.3,1.5-2.3,3v2.3h1.2v1.1h-3.9
			V94.7z"/>
		<path class="st1" d="M285.1,97.7v-8.1c0-0.2-0.1-0.3-0.3-0.3h-0.9v-1.1h1.7c0.7,0,0.9,0.3,0.9,0.8V89c0,0.2,0,0.4,0,0.4h0
			c0,0,0.6-1.4,2.6-1.4c2.1,0,3.4,1.6,3.4,4c0,2.4-1.5,4-3.5,4c-1.7,0-2.4-1.3-2.4-1.3h0c0,0,0,0.3,0,0.7v2.3h1.2v1.1h-3.9v-1.1
			H285.1z M288.7,94.7c1.2,0,2.2-1,2.2-2.7c0-1.7-0.9-2.7-2.2-2.7c-1.1,0-2.2,0.8-2.2,2.7C286.5,93.4,287.3,94.7,288.7,94.7z"/>
		<path class="st1" d="M297.9,91.1h0.5v-0.3c0-1.2-0.7-1.6-1.6-1.6c-1.2,0-2.2,0.7-2.2,0.7l-0.6-1c0,0,1.1-0.9,2.9-0.9
			c1.9,0,3,1,3,2.9v3.4c0,0.2,0.1,0.3,0.3,0.3h0.8v1.1h-1.5c-0.7,0-1-0.3-1-0.8v-0.1c0-0.3,0.1-0.5,0.1-0.5h0c0,0-0.7,1.6-2.5,1.6
			c-1.3,0-2.5-0.7-2.5-2.3C293.4,91.3,296.6,91.1,297.9,91.1z M296.3,94.9c1.3,0,2.1-1.3,2.1-2.5v-0.3H298c-0.7,0-3.1,0-3.1,1.5
			C294.9,94.3,295.4,94.9,296.3,94.9z"/>
		<path class="st1" d="M302.1,94.7h1.2v-5c0-0.2-0.1-0.3-0.3-0.3H302v-1.1h1.7c0.7,0,1,0.3,1,0.8v0.4c0,0.2,0,0.4,0,0.4h0
			c0.2-0.4,1-1.9,3-1.9c1.8,0,2.5,1,2.5,2.9v3.8h1.2v1.1h-2.7v-4.6c0-1.1-0.2-1.9-1.4-1.9c-1.5,0-2.6,1.4-2.6,2.9v2.4h1.2v1.1h-3.9
			V94.7z"/>
		<path class="st1" d="M313.4,97.8c0.7,0,1.1-0.5,1.4-1.1l0.3-0.8l-2.7-6.6h-1v-1.1h3.5v1.1h-1l1.7,4.5c0.1,0.3,0.1,0.7,0.1,0.7h0
			c0,0,0.1-0.3,0.2-0.7l1.7-4.5h-1v-1.1h3.4v1.1h-1l-3,7.7c-0.5,1.3-1.5,2-2.7,2c-1,0-1.6-0.5-1.6-0.5l0.5-1.1
			C312.3,97.4,312.8,97.8,313.4,97.8z"/>
	</g>
</g>
</svg>
